<?xml version="1.0" encoding="UTF-8"?>
<svg width="320px" height="54px" viewBox="0 0 320 54" version="1.1" xmlns="http://www.w3.org/2000/svg" xmlns:xlink="http://www.w3.org/1999/xlink">
    <title>Group 14</title>
    <g id="Page-1" stroke="none" stroke-width="1" fill="none" fill-rule="evenodd">
        <g id="-_-font-2">
            <polygon id="Background" fill="#333333" points="0 0 320 0 320 54 0 54"></polygon>
            <g id="Group" transform="translate(180.000000, 18.000000)" fill="#FFFFFF">
                <path d="M17.2588235,16.0941176 L12.3882353,11.2235294 C13.3411765,10.0588235 13.8705882,8.57647059 13.8705882,6.88235294 C13.8705882,3.07058824 10.8,0 6.98823529,0 C3.17647059,0 0,3.07058824 0,6.88235294 C0,10.6941176 3.07058824,13.7647059 6.88235294,13.7647059 C8.47058824,13.7647059 9.95294118,13.2352941 11.2235294,12.2823529 L16.0941176,17.1529412 C16.2,17.2588235 16.4117647,17.3647059 16.6235294,17.3647059 C16.8352941,17.3647059 17.0470588,17.2588235 17.1529412,17.1529412 C17.5764706,16.9411765 17.5764706,16.4117647 17.2588235,16.0941176 L17.2588235,16.0941176 Z M0.952941176,6.98823529 C0.952941176,3.6 3.70588235,0.952941176 6.98823529,0.952941176 C10.3764706,0.952941176 13.0235294,3.70588235 13.0235294,6.98823529 C13.0235294,10.3764706 10.2705882,13.1294118 6.98823529,13.1294118 C3.70588235,13.1294118 0.952941176,10.3764706 0.952941176,6.98823529 L0.952941176,6.98823529 Z" id="Shape"></path>
                <path d="M6.88235294,2.64705882 C4.55294118,2.64705882 2.64705882,4.55294118 2.64705882,6.88235294 C2.64705882,7.30588235 2.96470588,7.72941176 3.38823529,7.72941176 C3.91764706,7.72941176 4.23529412,7.41176471 4.23529412,6.88235294 C4.23529412,5.50588235 5.50588235,4.23529412 6.88235294,4.23529412 C7.41176471,4.23529412 7.72941176,3.91764706 7.72941176,3.49411765 C7.72941176,3.07058824 7.41176471,2.64705882 6.88235294,2.64705882 L6.88235294,2.64705882 Z" id="Shape"></path>
            </g>
            <g id="Group" transform="translate(225.000000, 18.000000)" fill="#FFFFFF">
                <path d="M8.78823529,0 C3.91764706,0 0,3.91764706 0,8.78823529 C0,13.6588235 3.91764706,17.5764706 8.78823529,17.5764706 C13.6588235,17.5764706 17.5764706,13.6588235 17.5764706,8.78823529 C17.5764706,3.91764706 13.5529412,0 8.78823529,0 L8.78823529,0 Z M8.78823529,16.5176471 C4.55294118,16.5176471 1.05882353,13.0235294 1.05882353,8.78823529 C1.05882353,4.55294118 4.55294118,1.05882353 8.78823529,1.05882353 C13.0235294,1.05882353 16.5176471,4.55294118 16.5176471,8.78823529 C16.5176471,13.0235294 13.0235294,16.5176471 8.78823529,16.5176471 L8.78823529,16.5176471 Z" id="Shape"></path>
                <path d="M9.95294118,9.42352941 C10.2705882,9.10588235 10.5882353,8.57647059 10.5882353,8.36470588 C10.5882353,8.15294118 10.6941176,8.04705882 10.6941176,7.83529412 C10.8,7.72941176 10.9058824,7.62352941 11.0117647,7.51764706 C11.1176471,7.30588235 11.1176471,6.77647059 11.1176471,6.77647059 C11.1176471,6.35294118 11.0117647,6.14117647 11.0117647,6.14117647 C11.1176471,4.55294118 10.6941176,4.34117647 10.3764706,4.23529412 C10.3764706,4.23529412 10.1647059,4.23529412 10.0588235,4.12941176 C9.84705882,3.91764706 9.84705882,3.70588235 9.52941176,3.70588235 C9.42352941,3.70588235 9.21176471,3.70588235 9.21176471,3.6 C9,3.49411765 8.89411765,3.38823529 8.68235294,3.38823529 C8.57647059,3.38823529 8.47058824,3.49411765 8.36470588,3.6 C8.25882353,3.70588235 8.15294118,3.70588235 7.94117647,3.70588235 C7.62352941,3.70588235 7.62352941,3.91764706 7.41176471,4.12941176 C7.30588235,4.23529412 7.2,4.23529412 7.09411765,4.23529412 C6.67058824,4.34117647 6.24705882,4.65882353 6.35294118,6.14117647 C6.35294118,6.14117647 6.24705882,6.35294118 6.24705882,6.77647059 C6.24705882,6.77647059 6.24705882,7.30588235 6.35294118,7.51764706 C6.45882353,7.62352941 6.56470588,7.83529412 6.67058824,7.83529412 C6.67058824,7.94117647 6.77647059,8.15294118 6.77647059,8.36470588 C6.88235294,8.68235294 7.09411765,9.10588235 7.41176471,9.42352941 L7.41176471,9.42352941 C7.41176471,11.2235294 4.23529412,10.6941176 3.81176471,12.7058824 C4.97647059,14.0823529 6.67058824,15.0352941 8.68235294,15.0352941 C10.5882353,15.0352941 12.3882353,14.1882353 13.5529412,12.7058824 C13.1294118,10.6941176 10.0588235,11.2235294 9.95294118,9.42352941 L9.95294118,9.42352941 Z" id="Shape"></path>
            </g>
            <rect id="Rectangle" stroke-opacity="0.579370471" stroke="#666666" x="256.5" y="13.5" width="53" height="27" rx="4"></rect>
            <text id="MENU" font-family="Arial-BoldMT, Arial" font-size="14" font-weight="bold" fill="#FFFFFF">
                <tspan x="262.779297" y="32">MENU</tspan>
            </text>
            <g id="GN">
                <g id="Page-1" fill="#D10A11">
                    <polygon id="Fill-1" points="0.0660329684 54 119.981206 54 119.981206 0 0.0660329684 0"></polygon>
                </g>
                <g id="Group-20" transform="translate(10.000000, 15.000000)" fill="#FFFFFF">
                    <path d="M11.739635,17.9445098 C11.3081356,17.9445098 7.83808207,17.9411683 7.3516948,17.9411683 C5.97379556,17.9411683 6.08570978,16.7814347 5.96072702,15.8164618 L5.96072702,9.46072022 C5.96072702,9.46072022 6.91805691,9.43088554 7.98444971,9.43088554 C9.19744775,9.43088554 10.7297934,9.25450292 12.2160427,10.1072974 C12.2160427,10.1072974 11.1503627,7.54390171 7.97351966,7.54390171 L5.96072702,7.54390171 L5.96072702,6.29203853 L5.96072702,5.51180198 C5.96072702,5.51180198 5.96072702,3.72172119 5.54229616,3.22551079 C5.54229616,3.22551079 8.2170697,3.23887673 8.41428584,3.24197953 C10.9331874,3.24532102 12.8775484,3.19925627 14.9060232,4.53346316 C14.9060232,4.53346316 14.5279861,1.19460445 9.64106525,1.19460445 L0.155681942,1.19460445 C0.155681942,1.19460445 1.85554247,2.61187109 1.7569344,5.50201621 L1.85554247,17.0289432 C1.85554247,19.9369891 2.98704035,19.9894981 2.98704035,19.9894981 L6.23017654,19.9894981 L7.71333692,19.9894981 L12.3308082,19.9894981 C14.4559903,19.9894981 15.1830763,18.4834435 15.1830763,17.6540394 L15.216104,16.5403704 C15.216104,16.5403704 14.5512718,17.9445098 11.739635,17.9445098" id="Fill-2"></path>
                    <path d="M36.6053583,16.9662665 L36.6053583,8.90183313 C36.6053583,5.76895306 34.0486768,4.93095657 32.1532634,4.93095657 C29.6552715,4.93095657 28.8920689,7.0422972 28.5831761,7.76501249 C28.0136254,5.79926509 26.0528693,4.90804353 24.4321329,4.90804353 C21.4320715,4.90804353 20.6503353,7.81799888 20.6503353,7.81799888 C20.6503353,7.81799888 20.5792899,5.01019748 18.1456903,5.01019748 L15.761276,5.01688044 C15.761276,5.01688044 17.1232554,5.60092414 17.1232554,8.00894083 L17.1232554,16.9662665 C17.1232554,19.9401874 18.3172446,19.9733635 18.3172446,19.9733635 L22.2708341,19.9733635 C22.162484,19.9401874 20.7463296,18.8663776 20.7463296,16.9431148 L20.7463296,9.00398708 C20.7910003,8.64072001 21.4023703,7.45473181 23.0967658,7.45473181 C24.038651,7.45473181 25.0895992,8.44285641 25.0770059,9.5760969 L25.070828,16.962925 C25.070828,19.9635778 26.2465213,19.970022 26.2465213,19.970022 L30.2043878,19.970022 C30.2043878,19.970022 28.6901005,18.905998 28.6901005,16.9366705 L28.6775072,8.99730411 C28.8224492,8.54524904 29.3520814,7.4781222 30.8535378,7.4781222 C32.0235284,7.4781222 33.0065202,8.46600813 32.9813336,9.6056929 C32.9813336,9.6056929 32.9715916,16.3356807 32.9715916,16.9729494 C32.9939269,19.9862521 34.1510866,19.9635778 34.1510866,19.9635778 C36.2194799,19.9635778 38.1158438,19.970022 38.1158438,19.970022 C38.1158438,19.970022 36.6053583,18.9224668 36.6053583,16.9662665" id="Fill-4"></path>
                    <path d="M43.4988463,16.9597267 C43.4988463,18.9424202 45.0178858,19.9699266 45.0178858,19.9699266 C45.0178858,19.9699266 43.1429068,19.9599021 41.0721374,19.9599021 C41.0721374,19.9599021 39.8957313,19.9732681 39.8957313,16.9893227 L39.8957313,16.9761954 L39.9021467,7.99070587 C39.9021467,5.6258898 38.5285245,5.01034068 38.5285245,5.01034068 L40.8901283,5.01034068 C41.7222378,5.01034068 43.4857778,5.01034068 43.4857778,8.35039277 L43.4857778,16.9463608 L43.4988463,16.9597267 Z" id="Fill-6"></path>
                    <path d="M55.606729,6.1434857 C55.606729,6.1434857 55.2220387,5.06299293 53.6367061,5.06299293 C51.1102011,5.06299293 50.4957422,8.0149555 50.4957422,8.0149555 C50.2906849,5.68975988 49.7175701,4.99043498 47.9842066,4.99043498 L45.589575,4.99377647 C45.589575,4.99377647 46.9807804,5.58140033 46.9807804,7.99084908 L46.9743649,16.9596312 C46.9743649,19.9368936 48.160513,19.9667283 48.160513,19.9667283 L52.076085,19.9667283 C51.974388,19.9368936 50.5351854,18.8597423 50.5351854,16.9333767 L50.5423137,9.58951057 C50.6406841,8.93123819 50.9885449,8.40996666 51.5279191,8.0657938 C52.8483168,7.23710572 54.6090055,7.44499377 55.606729,8.67060243 L55.606729,6.1434857 Z" id="Fill-8"></path>
                    <path d="M73.9333117,6.69776631 C75.3000433,6.69776631 76.3182013,7.2734563 76.3182013,7.2734563 L76.331745,5.01031682 L72.9968915,5.01031682 L72.9968915,1.58386349 C72.9968915,1.58386349 72.1804642,3.11330852 70.3534824,4.56112587 C69.2167571,5.49530937 66.905289,6.63523283 66.905289,6.63523283 L69.37453,6.68463906 L69.3681146,17.08835 C69.3681146,19.9634584 70.5965572,19.9634584 70.5965572,19.9634584 C72.7656971,19.9634584 74.4916947,19.9699027 74.4916947,19.9699027 C74.4916947,19.9699027 72.9907136,18.9423963 72.9907136,17.0620955 L72.9968915,6.69442483 C74.0024561,6.69442483 73.2929533,6.69776631 73.9333117,6.69776631" id="Fill-10"></path>
                    <path d="M85.9641613,11.2177203 C83.7073434,13.5271632 81.9827714,13.1541104 80.6438402,14.8716333 C80.6438402,14.8716333 80.8638669,17.170813 82.5504213,17.9773041 C83.1489603,18.2613303 85.6326956,19.0382253 87.1657541,16.2633614 L87.1657541,18.8995537 C87.1657541,18.8995537 86.1851384,19.9862521 82.9194293,19.9862521 C79.0896345,19.9862521 76.4630957,16.9431148 76.4630957,12.7941848 C76.4630957,8.73332686 78.5904163,4.95076679 82.6409506,4.93095657 C86.6736642,4.90780485 88.8442297,8.14069078 85.9641613,11.2177203 M83.4942074,10.2625332 C84.1607029,9.04360753 84.6865334,5.96180443 82.4263889,6.13341351 C79.8782614,6.33151578 80.3808061,13.2300098 80.3808061,13.2300098 C81.2480819,12.28795 82.4919692,12.0967693 83.4942074,10.2625332" id="Fill-12"></path>
                    <path d="M41.6566575,3.79122406 C42.676954,3.79122406 43.5116772,3.00430454 43.5116772,2.00639416 C43.5116772,1.0051423 42.676954,0.18027307 41.6566575,0.18027307 C40.6404004,0.18027307 39.8577137,1.0051423 39.8577137,2.00639416 C39.8577137,3.00430454 40.6404004,3.79122406 41.6566575,3.79122406" id="Fill-14"></path>
                    <path d="M94.6318105,15.9122669 C94.6648382,16.9698466 93.7056074,18.3701672 91.686637,18.3701672 C89.747741,18.3701672 88.8707232,16.2337654 88.8707232,16.2337654 L88.850764,18.9160225 C88.850764,18.9160225 90.3363004,19.9733635 92.5684069,19.9733635 C95.3130378,19.9733635 97.9680897,17.9345808 97.8827878,15.0673488 C97.8535618,14.0563111 97.5016616,13.2004138 96.9563471,12.466242 C96.0541427,11.2539993 94.4151103,10.3513212 93.0776047,9.58612135 C91.3028971,8.54835184 91.5340915,6.32149133 94.1717979,6.53606235 C96.1140204,6.69788565 96.9304477,8.5879723 96.9304477,8.5879723 L96.9304477,6.09403173 C96.9304477,6.09403173 95.4565541,4.89133611 93.1531647,4.89133611 C90.8096192,4.89133611 88.6799225,6.47352886 88.745978,8.46911093 C88.7951633,10.2560889 89.5279519,11.4055595 90.9752332,12.4631392 C91.5307649,12.8801087 92.1972604,13.3023291 93.0020448,13.7512814 C94.1815399,14.3830605 94.6123264,15.1597169 94.6318105,15.9122669" id="Fill-16"></path>
                    <path d="M60.2210876,18.2778229 C59.0071391,18.2778229 58.1823955,17.5944894 58.1823955,16.1707784 C58.1823955,12.8039945 61.1998024,12.1197062 62.0347632,11.1220345 L62.0281102,17.4033087 C61.9984089,17.4262218 61.4694895,18.2778229 60.2210876,18.2778229 M62.3926036,8.2977644 C62.3926036,9.77064288 61.1375486,10.415788 60.3097161,10.7785777 C58.0051386,11.8063228 54.9402098,12.9462462 54.9402098,16.3722222 C54.9402098,18.6716406 56.6248633,19.9931976 58.9648446,19.9931976 C60.7307606,19.9931976 61.6434199,19.070948 62.097017,18.2019234 C62.3731196,19.884122 63.2204361,19.9600215 63.2204361,19.9600215 C65.2363177,19.9600215 67.1516903,19.9733874 67.1516903,19.9733874 C67.1516903,19.9733874 65.5877426,18.9291736 65.5877426,16.9729733 L65.5877426,16.9662903 L65.5877426,8.56508313 C65.5877426,6.54945215 63.3912776,4.98038666 61.006388,4.98038666 C58.7707174,4.98038666 57.3279507,6.08045098 57.3279507,6.08045098 L57.3279507,8.69038879 C57.3279507,8.69038879 58.1493677,6.62845439 60.1519432,6.62845439 C61.8867323,6.62845439 62.3926036,7.45809717 62.3926036,8.2977644" id="Fill-18"></path>
                </g>
            </g>
        </g>
    </g>
</svg>